<svg xmlns="http://www.w3.org/2000/svg" width="24" height="24" fill="none" viewBox="0 0 24 24">
  <path stroke="currentColor" stroke-linecap="round" stroke-linejoin="round" stroke-width="2" d="m7.171 12.906-2.153 6.411 2.672-.89 1.568 2.34 1.826-5.183m5.729-2.678 2.154 6.411-2.672-.89-1.569 2.34-1.825-5.183M9.165 4.3a1.68 1.68 0 0 0 1.515-.628 1.681 1.681 0 0 1 2.64 0 1.68 1.68 0 0 0 1.515.628 1.681 1.681 0 0 1 1.866 1.866 1.68 1.68 0 0 0 .628 1.515 1.681 1.681 0 0 1 0 2.64 1.682 1.682 0 0 0-.628 1.515 1.681 1.681 0 0 1-1.866 1.866 1.681 1.681 0 0 0-1.516.628 1.681 1.681 0 0 1-2.639 0 1.681 1.681 0 0 0-1.515-.628 1.681 1.681 0 0 1-1.866-1.866 1.682 1.682 0 0 0-.628-1.516 1.681 1.681 0 0 1 0-2.639 1.68 1.68 0 0 0 .628-1.515A1.681 1.681 0 0 1 9.165 4.3ZM14 9a2 2 0 1 1-4 0 2 2 0 0 1 4 0Z"/>
</svg>
