<svg width="24" height="25" viewBox="0 0 24 25" fill="none" xmlns="http://www.w3.org/2000/svg">
<path d="M20.9675 3.5835L13.1445 11.8954Z" fill="#465161"/>
<path d="M20.9675 3.5835L13.1445 11.8954" stroke="#465161" stroke-width="1.76017" stroke-linecap="round" stroke-linejoin="round"/>
<path d="M9.66834 11.4899C7.24288 12.4203 5.30405 12.2607 3.36523 11.493C3.85475 17.7929 6.79184 20.216 10.708 21.1851C10.708 21.1851 13.6584 19.0988 14.0837 14.1517C14.1298 13.6159 14.1528 13.3481 14.0415 13.0462C13.93 12.7443 13.7113 12.5278 13.2739 12.0948C12.5546 11.3826 12.1949 11.0266 11.768 10.9374C11.3412 10.8483 10.7836 11.0622 9.66834 11.4899Z" stroke="#465161" stroke-width="1.76017" stroke-linecap="round" stroke-linejoin="round"/>
<path d="M4.83203 16.7323C4.83203 16.7323 7.27671 17.2038 9.7214 15.3179" stroke="#465161" stroke-width="1.76017" stroke-linecap="round" stroke-linejoin="round"/>
<path d="M8.74351 7.73943C8.74351 8.41452 8.19625 8.96177 7.52117 8.96177C6.84609 8.96177 6.29883 8.41452 6.29883 7.73943C6.29883 7.06435 6.84609 6.51709 7.52117 6.51709C8.19625 6.51709 8.74351 7.06435 8.74351 7.73943Z" stroke="#465161" stroke-width="1.76017"/>
<path d="M11.1875 4.56152V4.65931" stroke="#465161" stroke-width="2.3469" stroke-linecap="round" stroke-linejoin="round"/>
</svg>
