<svg xmlns="http://www.w3.org/2000/svg" width="25" height="24" fill="none" viewBox="0 0 25 24">
  <path fill="currentColor" d="M12.113 17a2.004 2.004 0 0 1 2.003 2H10.11a1.999 1.999 0 0 1 2.003-2Z"/>
  <path stroke="currentColor" stroke-linecap="round" stroke-linejoin="round" stroke-width="2" d="M13.93 9h2.689a2.006 2.006 0 0 0 1.978-1.62 1.998 1.998 0 0 0-1.23-2.24 2.005 2.005 0 0 0-1.78.153 1.87 1.87 0 0 0 .03-.293 1.99 1.99 0 0 0-1.295-1.874 1.997 1.997 0 0 0-2.21.564A1.995 1.995 0 0 0 8.609 5c.003.098.013.196.03.293a2.004 2.004 0 0 0-3.01 2.087A1.999 1.999 0 0 0 7.607 9h3.392m2.931-.985v3.604M10.34 9v2.574M15.116 16h.01m-6.018 0h.01m11.978-4.426a1.805 1.805 0 0 1-1.742 1.326 1.897 1.897 0 0 1-1.814-1.326 1.9 1.9 0 0 1-1.813 1.324 1.904 1.904 0 0 1-1.813-1.324 1.8 1.8 0 0 1-1.751 1.326 1.985 1.985 0 0 1-1.873-1.326A1.763 1.763 0 0 1 8.568 12.9a2.04 2.04 0 0 1-1.907-1.326A1.9 1.9 0 0 1 4.843 12.9a1.809 1.809 0 0 1-1.742-1.326V12c0 2.387.95 4.676 2.64 6.364a9.018 9.018 0 0 0 12.744 0A8.994 8.994 0 0 0 21.125 12l-.028-.426Z"/>
</svg>
