<svg xmlns="http://www.w3.org/2000/svg" width="25" height="24" fill="none" viewBox="0 0 25 24">
  <path stroke="currentColor" stroke-linecap="round" stroke-linejoin="round" stroke-width="2" d="M12.177 21c4.978 0 9.012-4.03 9.012-9s-4.034-9-9.012-9C7.2 3 3.165 7.03 3.165 12s4.035 9 9.012 9Z"/>
  <path stroke="currentColor" stroke-linecap="round" stroke-linejoin="round" stroke-width="2" d="M17.184 13c0 2.038-2.242 4.5-5.007 4.5-2.764 0-5.006-2.462-5.006-4.5 0 1.444 10.013 1.444 10.013 0Z"/>
  <path fill="currentColor" d="m9.173 6.811.62 1.253 1.383.2-1.001.975.236 1.377-1.238-.65-1.237.65.236-1.377-1.001-.975 1.384-.2.618-1.253Zm6.008 0 .62 1.253 1.383.2-1.001.975.236 1.377-1.238-.65-1.237.65.236-1.377-1.001-.975 1.384-.2.618-1.253Z"/>
  <path stroke="currentColor" stroke-linecap="round" stroke-linejoin="round" d="m9.173 6.811.62 1.253 1.383.2-1.001.975.236 1.377-1.238-.65-1.237.65.236-1.377-1.001-.975 1.384-.2.618-1.253Zm6.008 0 .62 1.253 1.383.2-1.001.975.236 1.377-1.238-.65-1.237.65.236-1.377-1.001-.975 1.384-.2.618-1.253Z"/>
</svg>
