<svg width="24" height="25" viewBox="0 0 24 25" fill="none" xmlns="http://www.w3.org/2000/svg">
<path fill-rule="evenodd" clip-rule="evenodd" d="M6.37503 5.53924C6.11568 5.53924 5.86695 5.64227 5.68357 5.82566C5.50018 6.00904 5.39715 6.25777 5.39715 6.51712V18.2516C5.39715 18.5109 5.50018 18.7597 5.68357 18.9431C5.86695 19.1264 6.11568 19.2295 6.37503 19.2295H18.1095C18.3689 19.2295 18.6176 19.1264 18.801 18.9431C18.9844 18.7597 19.0874 18.5109 19.0874 18.2516V8.87791L15.7487 5.53924H15.1759V8.47286C15.1759 9.01293 14.7381 9.45074 14.198 9.45074H8.33077C7.79071 9.45074 7.3529 9.01293 7.3529 8.47286V5.53924H6.37503ZM6.37503 3.5835C5.59698 3.5835 4.8508 3.89257 4.30064 4.44273C3.75048 4.99289 3.44141 5.73907 3.44141 6.51712V18.2516C3.44141 19.0296 3.75048 19.7758 4.30064 20.326C4.8508 20.8761 5.59698 21.1852 6.37503 21.1852H18.1095C18.8876 21.1852 19.6337 20.8761 20.1839 20.326C20.7341 19.7758 21.0431 19.0296 21.0431 18.2516V8.47286C21.0431 8.21351 20.9401 7.96479 20.7567 7.7814L16.8452 3.86991C16.6618 3.68652 16.4131 3.5835 16.1538 3.5835H6.37503ZM9.30865 5.53924V7.49499H13.2201V5.53924H9.30865ZM10.1679 12.2657C10.718 11.7156 11.4642 11.4065 12.2423 11.4065C13.0203 11.4065 13.7665 11.7156 14.3166 12.2657C14.8668 12.8159 15.1759 13.5621 15.1759 14.3401C15.1759 15.1181 14.8668 15.8643 14.3166 16.4145C13.7665 16.9646 13.0203 17.2737 12.2423 17.2737C11.4642 17.2737 10.718 16.9646 10.1679 16.4145C9.61772 15.8643 9.30865 15.1181 9.30865 14.3401C9.30865 13.5621 9.61772 12.8159 10.1679 12.2657ZM12.2423 13.3622C11.9829 13.3622 11.7342 13.4653 11.5508 13.6486C11.3674 13.832 11.2644 14.0808 11.2644 14.3401C11.2644 14.5995 11.3674 14.8482 11.5508 15.0316C11.7342 15.215 11.9829 15.318 12.2423 15.318C12.5016 15.318 12.7503 15.215 12.9337 15.0316C13.1171 14.8482 13.2201 14.5995 13.2201 14.3401C13.2201 14.0808 13.1171 13.832 12.9337 13.6486C12.7503 13.4653 12.5016 13.3622 12.2423 13.3622Z" fill="black"/>
</svg>
