<svg xmlns="http://www.w3.org/2000/svg" width="25" height="24" fill="none" viewBox="0 0 25 24">
  <path stroke="currentColor" stroke-linecap="round" stroke-linejoin="round" stroke-width="2" d="M7.3 11c.89-.086 1.418-.543 2.158-1.057a22.324 22.324 0 0 0 3.964-5.084c.135-.26.336-.477.583-.628a1.552 1.552 0 0 1 1.468-.087c.205.095.388.233.537.406a1.662 1.662 0 0 1 .385 1.279l-1.39 4.114M7.3 11H4.296v6.498c0 .83.672 1.502 1.502 1.502v0c.83 0 1.502-.672 1.502-1.502V11Zm6.509-1h4.921c.287 0 .372.014.627.15a1.8 1.8 0 0 1 .637.572 1.87 1.87 0 0 1 .216 1.673l-2.1 6.4c-.258.724-.428 1.205-1.678 1.205-2.306 0-4.797-.943-6.68-1.475"/>
</svg>
