<svg xmlns="http://www.w3.org/2000/svg" width="25" height="24" fill="none" viewBox="0 0 25 24">
  <path stroke="currentColor" stroke-linecap="round" stroke-linejoin="round" stroke-width="2" d="M17.378 13c-.89.086-1.418.543-2.159 1.057a22.327 22.327 0 0 0-3.964 5.084 1.6 1.6 0 0 1-.582.628 1.552 1.552 0 0 1-1.468.087 1.589 1.589 0 0 1-.538-.406 1.663 1.663 0 0 1-.385-1.279l1.39-4.114M17.379 13h3.004V6.502c0-.83-.673-1.502-1.502-1.502v0c-.83 0-1.502.672-1.502 1.502V13Zm-6.51 1h-4.92c-.287 0-.373-.014-.627-.15a1.798 1.798 0 0 1-.638-.572 1.87 1.87 0 0 1-.216-1.673l2.101-6.4C6.825 4.48 6.996 4 8.245 4c2.306 0 4.798.943 6.68 1.475"/>
</svg>
